<svg width="128" height="128" viewBox="0 0 128 128" fill="none" xmlns="http://www.w3.org/2000/svg">
  <circle cx="64" cy="64" r="64" fill="#FFFFFF"/>
  <path d="M96 36H32C28.6863 36 26 38.6863 26 42V90C26 93.3137 28.6863 96 32 96H96C99.3137 96 102 93.3137 102 90V42C102 38.6863 99.3137 36 96 36Z" fill="#212121"/>
  <rect x="34" y="44" width="12" height="12" rx="2" fill="#424242"/>
  <rect x="50" y="44" width="12" height="12" rx="2" fill="#424242"/>
  <rect x="66" y="44" width="12" height="12" rx="2" fill="#424242"/>
  <rect x="82" y="44" width="12" height="12" rx="2" fill="#424242"/>
  <rect x="34" y="60" width="12" height="12" rx="2" fill="#424242"/>
  <rect x="50" y="60" width="12" height="12" rx="2" fill="#424242"/>
  <rect x="66" y="60" width="12" height="12" rx="2" fill="#424242"/>
  <rect x="82" y="60" width="12" height="12" rx="2" fill="#424242"/>
  <rect x="34" y="76" width="12" height="12" rx="2" fill="#424242"/>
  <rect x="50" y="76" width="12" height="12" rx="2" fill="#424242"/>
  <rect x="66" y="76" width="12" height="12" rx="2" fill="#424242"/>
  <rect x="82" y="76" width="12" height="12" rx="2" fill="#424242"/>
  <path d="M78 86L90 74L92.8284 76.8284L78 91.6569L69.1716 82.8284L72 80L78 86Z" fill="#616161"/>
  <circle cx="88" cy="80" r="14" stroke="#616161" stroke-width="4"/>
  <path d="M90 80L90 76C90 75.4477 89.5523 75 89 75H87C86.4477 75 86 75.4477 86 76V82H91.5C92.0523 82 92.5 81.5523 92.5 81C92.5 80.4477 92.0523 80 91.5 80H90Z" fill="#616161"/>
</svg>
