<svg width="128" height="128" viewBox="0 0 128 128" fill="none" xmlns="http://www.w3.org/2000/svg">
  <!-- Background gradient -->
  <defs>
    <linearGradient id="bgGradient" x1="0" y1="0" x2="128" y2="128" gradientUnits="userSpaceOnUse">
      <stop offset="0%" stop-color="#3B82F6"/>
      <stop offset="100%" stop-color="#8B5CF6"/>
    </linearGradient>
    <linearGradient id="calendarGradient" x1="0" y1="0" x2="0" y2="1">
      <stop offset="0%" stop-color="#FFFFFF"/>
      <stop offset="100%" stop-color="#E0E7FF"/>
    </linearGradient>
  </defs>

  <!-- Background circle -->
  <circle cx="64" cy="64" r="62" fill="url(#bgGradient)"/>
  <circle cx="64" cy="64" r="62" fill="url(#bgGradient)" opacity="0.9"/>

  <!-- Calendar body -->
  <rect x="32" y="38" width="64" height="56" rx="6" fill="url(#calendarGradient)"/>
  <rect x="32" y="38" width="64" height="14" rx="6" fill="#3B82F6"/>
  <rect x="32" y="45" width="64" height="7" fill="#3B82F6"/>

  <!-- Calendar rings -->
  <rect x="42" y="32" width="4" height="12" rx="2" fill="#DBEAFE"/>
  <rect x="58" y="32" width="4" height="12" rx="2" fill="#DBEAFE"/>
  <rect x="74" y="32" width="4" height="12" rx="2" fill="#DBEAFE"/>

  <!-- Calendar grid -->
  <rect x="38" y="56" width="8" height="6" rx="1" fill="#93C5FD"/>
  <rect x="50" y="56" width="8" height="6" rx="1" fill="#93C5FD"/>
  <rect x="62" y="56" width="8" height="6" rx="1" fill="#93C5FD"/>
  <rect x="74" y="56" width="8" height="6" rx="1" fill="#93C5FD"/>
  <rect x="86" y="56" width="8" height="6" rx="1" fill="#93C5FD"/>

  <rect x="38" y="66" width="8" height="6" rx="1" fill="#93C5FD"/>
  <rect x="50" y="66" width="8" height="6" rx="1" fill="#93C5FD"/>
  <rect x="62" y="66" width="8" height="6" rx="1" fill="#3B82F6"/>
  <rect x="74" y="66" width="8" height="6" rx="1" fill="#93C5FD"/>
  <rect x="86" y="66" width="8" height="6" rx="1" fill="#93C5FD"/>

  <rect x="38" y="76" width="8" height="6" rx="1" fill="#93C5FD"/>
  <rect x="50" y="76" width="8" height="6" rx="1" fill="#93C5FD"/>
  <rect x="62" y="76" width="8" height="6" rx="1" fill="#93C5FD"/>
  <rect x="74" y="76" width="8" height="6" rx="1" fill="#93C5FD"/>
  <rect x="86" y="76" width="8" height="6" rx="1" fill="#93C5FD"/>

  <rect x="38" y="86" width="8" height="6" rx="1" fill="#93C5FD"/>
  <rect x="50" y="86" width="8" height="6" rx="1" fill="#93C5FD"/>
  <rect x="62" y="86" width="8" height="6" rx="1" fill="#93C5FD"/>

  <!-- Checkmark circle -->
  <circle cx="84" cy="80" r="18" fill="#10B981"/>
  <circle cx="84" cy="80" r="18" fill="#10B981" opacity="0.9"/>

  <!-- Checkmark -->
  <path d="M76 80L81 85L92 74" stroke="white" stroke-width="4" stroke-linecap="round" stroke-linejoin="round" fill="none"/>

  <!-- Clock indicator -->
  <circle cx="48" cy="80" r="8" fill="#8B5CF6" opacity="0.9"/>
  <path d="M48 76V80L50.5 82.5" stroke="white" stroke-width="1.5" stroke-linecap="round" stroke-linejoin="round"/>
</svg>